<?xml version="1.0" encoding="UTF-8"?><svg xmlns="http://www.w3.org/2000/svg" viewBox="0 0 29.24 29.25"><g id="a"/><g id="b"><g id="c"><path d="M14.62,0C6.54,0,0,6.55,0,14.63s6.54,14.62,14.62,14.62,14.62-6.55,14.62-14.62S22.69,0,14.62,0Zm-4.66,8.99h8.98c.77,0,1.47,.24,2.05,.67l-5.41,5.41c-.67,.67-1.77,.67-2.45,0l-5.33-5.33c.59-.47,1.34-.75,2.16-.75Zm12.49,7.69c0,1.94-1.58,3.51-3.51,3.51H9.96c-1.94,0-3.51-1.57-3.51-3.51v-4.18c0-.76,.24-1.47,.66-2.04l5.31,5.31c.54,.54,1.24,.8,1.94,.8s1.4-.26,1.93-.8l5.42-5.42c.46,.59,.74,1.34,.74,2.15v4.18Z"/></g></g></svg>