<?xml version="1.0" encoding="UTF-8"?><svg xmlns="http://www.w3.org/2000/svg" viewBox="0 0 898.015 183.559"><defs><style>.d{fill:#fff;}</style></defs><g id="a"/><g id="b"><g id="c"><g><g><path class="d" d="M330.839,70.268c-.104-.012-.22-.012-.324-.012-.093,0-.185,0-.277,.012-11.817,.139-21.345,9.771-21.345,21.622s9.505,21.449,21.299,21.611c.104,.012,.22,.012,.324,.012s.22,0,.324-.012c11.794-.162,21.299-9.771,21.299-21.611s-9.505-21.46-21.299-21.622Zm4.787,31.832c0,2.821-2.289,5.099-5.111,5.099s-5.099-2.278-5.099-5.099v-20.431c0-2.775,2.197-5.03,4.96-5.099,.046-.012,.093-.012,.139-.012s.093,0,.139,.012c2.764,.069,4.972,2.324,4.972,5.099v20.431Z"/><path class="d" d="M330.654,76.569h-.277c.046-.012,.093-.012,.139-.012s.093,0,.139,.012Z"/><path class="d" d="M330.654,76.569h-.277c.046-.012,.093-.012,.139-.012s.093,0,.139,.012Z"/><path class="d" d="M642.381,73.413c0,.89-.37,1.688-.96,2.255-.023,.035-.046,.058-.069,.069l-.069,.069c-.012,.023-.023,.035-.046,.046-.543,.439-1.237,.717-2,.717h-6.336v9.713c-.012-.012-.023-.012-.035-.012v15.922c0,2.694,.497,5.284,1.399,7.666,.486,1.284,1.087,2.509,1.804,3.665-1.896-.162-3.723-.567-5.446-1.203-8.163-2.948-14.037-10.684-14.257-19.807-.012-.173-.012-.358-.012-.532v-15.413h-3.087c-1.746,0-3.157-1.411-3.157-3.157,0-1.052,.52-1.989,1.307-2.555,.52-.382,1.168-.601,1.85-.601h3.11c8.059-1.931,14.361-8.371,16.084-16.512,.197-.902,.335-1.839,.405-2.787,.012,.093,.023,.185,.012,.278,.012,.069,.012,.139,.012,.22,.012,.069,.012,.15,.012,.22v18.581h6.336c1.734,0,3.145,1.411,3.145,3.157Z"/><path class="d" d="M307.419,102.516l-.069,.069c-.012,.023-.023,.035-.046,.046-.543,.439-1.237,.717-2,.717-1.642,0-2.983-1.237-3.145-2.833v-22.062c0-3.7-2.44-6.834-5.816-7.886-.058-.023-.127-.035-.185-.046-.786-.162-1.607-.243-2.44-.266-.301,0-.601,.012-.902,.023-.358,.023-.705,.046-1.052,.093-.012-.012-.035,0-.046,0-6.915,.694-12.869,4.66-16.292,10.326v-2.243c0-3.7-2.44-6.834-5.816-7.886-.058-.023-.127-.035-.185-.046-.786-.162-1.607-.243-2.44-.266-.301,0-.601,.012-.902,.023-.358,.023-.705,.046-1.052,.093-.012-.012-.035,0-.046,0-6.915,.694-12.869,4.66-16.292,10.326v-2.243c0-3.7-2.44-6.834-5.816-7.886-.058-.023-.127-.035-.185-.046-.867-.173-1.769-.266-2.694-.266-.185,0-.37,0-.555,.012-6.371,.254-11.586,4.972-12.615,11.112,.023-.035,.046-.058,.069-.069l.069-.069c.012-.023,.023-.035,.046-.046,.543-.439,1.237-.717,2-.717,1.746,0,3.157,1.411,3.157,3.157v21.611c0,4.567,3.7,8.267,8.256,8.267s8.267-3.7,8.267-8.267v-21.218c0-2.821,2.289-5.111,5.111-5.111,.139,0,.277,0,.416,.023,2.012,.162,3.7,1.503,4.371,3.33,.197,.416,.312,.879,.312,1.364v21.611c0,4.556,3.689,8.256,8.233,8.267h.058c4.556-.023,8.233-3.712,8.233-8.267v-21.218c0-2.821,2.289-5.111,5.111-5.111,.139,0,.277,0,.416,.023,2.012,.162,3.7,1.503,4.371,3.33,.197,.416,.312,.879,.312,1.364v13.424h-.012v8.314c0,.197,.035,.382,.046,.567,.012,.069,.012,.15,.023,.22,.312,3.342,2.613,6.128,5.747,7.099,.058,.023,.127,.035,.185,.046,.867,.173,1.769,.266,2.694,.266,.185,0,.37,0,.555-.012,6.371-.254,11.586-4.972,12.615-11.112-.023,.035-.046,.058-.069,.069Z"/><path class="d" d="M732.242,102.516l-.069,.069c-.012,.023-.023,.035-.046,.046-.543,.439-1.237,.717-2,.717-1.642,0-2.983-1.237-3.145-2.833v-22.062c0-3.7-2.44-6.834-5.816-7.886-.058-.023-.127-.035-.185-.046-.786-.162-1.607-.243-2.44-.266-.301,0-.601,.012-.902,.023-.358,.023-.705,.046-1.052,.093-.012-.012-.035,0-.046,0-6.915,.694-12.869,4.66-16.292,10.326v-2.243c0-3.7-2.44-6.834-5.816-7.886-.058-.023-.127-.035-.185-.046-.786-.162-1.607-.243-2.44-.266-.301,0-.601,.012-.902,.023-.358,.023-.705,.046-1.052,.093-.012-.012-.035,0-.046,0-6.915,.694-12.869,4.66-16.292,10.326v-2.243c0-3.7-2.44-6.834-5.816-7.886-.058-.023-.127-.035-.185-.046-.867-.173-1.769-.266-2.694-.266-.185,0-.37,0-.555,.012-6.371,.254-11.586,4.972-12.615,11.112,.023-.035,.046-.058,.069-.069l.069-.069c.012-.023,.023-.035,.046-.046,.543-.439,1.237-.717,2-.717,1.746,0,3.157,1.411,3.157,3.157v21.611c0,4.567,3.7,8.267,8.256,8.267s8.267-3.7,8.267-8.267v-21.218c0-2.821,2.289-5.111,5.111-5.111,.139,0,.277,0,.416,.023,2.012,.162,3.7,1.503,4.371,3.33,.197,.416,.312,.879,.312,1.364v21.611c0,4.556,3.689,8.256,8.233,8.267h.058c4.556-.023,8.233-3.712,8.233-8.267v-21.218c0-2.821,2.289-5.111,5.111-5.111,.139,0,.277,0,.416,.023,2.012,.162,3.7,1.503,4.371,3.33,.197,.416,.312,.879,.312,1.364v13.424h-.012v8.314c0,.197,.035,.382,.046,.567,.012,.069,.012,.15,.023,.22,.312,3.342,2.613,6.128,5.747,7.099,.058,.023,.127,.035,.185,.046,.867,.173,1.769,.266,2.694,.266,.185,0,.37,0,.555-.012,6.371-.254,11.586-4.972,12.615-11.112-.023,.035-.046,.058-.069,.069Z"/><path class="d" d="M455.231,102.516l-.069,.069c-.012,.023-.023,.035-.046,.046-.543,.439-1.237,.717-2,.717-1.642,0-2.983-1.237-3.145-2.833v-22.062c0-3.7-2.44-6.834-5.816-7.886-.058-.023-.127-.035-.185-.046-.786-.162-1.607-.243-2.44-.266-.301,0-.601,.012-.902,.023-.358,.023-.705,.046-1.052,.093-.012-.012-.035,0-.046,0-6.915,.694-12.869,4.66-16.292,10.326v-2.243c0-3.7-2.44-6.834-5.816-7.886-.058-.023-.127-.035-.185-.046-.867-.173-1.769-.266-2.694-.266-.185,0-.37,0-.555,.012-6.371,.254-11.586,4.972-12.615,11.112,.023-.035,.046-.058,.069-.069l.069-.069c.012-.023,.023-.035,.046-.046,.543-.439,1.237-.717,2-.717,1.746,0,3.157,1.411,3.157,3.157v21.611c0,4.567,3.7,8.267,8.256,8.267s8.267-3.7,8.267-8.267v-21.218c0-2.821,2.289-5.111,5.111-5.111,.139,0,.277,0,.416,.023,2.012,.162,3.7,1.503,4.371,3.33,.197,.416,.312,.879,.312,1.364v13.424h-.012v8.314c0,.194,.034,.379,.047,.569,.006,.071,.01,.143,.018,.213,.319,3.351,2.619,6.127,5.752,7.103,.058,.023,.127,.035,.185,.046,.867,.173,1.769,.266,2.694,.266,.185,0,.37,0,.555-.012,6.371-.254,11.586-4.972,12.615-11.112-.023,.035-.046,.058-.069,.069Z"/><path class="d" d="M810.365,102.516l-.069,.069c-.012,.023-.023,.035-.046,.046-.543,.439-1.237,.717-2,.717-1.642,0-2.983-1.237-3.145-2.833v-22.062c0-3.7-2.44-6.834-5.816-7.886-.058-.023-.127-.035-.185-.046-.786-.162-1.607-.243-2.44-.266-.301,0-.601,.012-.902,.023-.358,.023-.705,.046-1.052,.093-.012-.012-.035,0-.046,0-6.915,.694-12.869,4.66-16.292,10.326v-2.243c0-3.7-2.44-6.834-5.816-7.886-.058-.023-.127-.035-.185-.046-.867-.173-1.769-.266-2.694-.266-.185,0-.37,0-.555,.012-6.371,.254-11.586,4.972-12.615,11.112,.023-.035,.046-.058,.069-.069l.069-.069c.012-.023,.023-.035,.046-.046,.543-.439,1.237-.717,2-.717,1.746,0,3.157,1.411,3.157,3.157v21.611c0,4.567,3.7,8.267,8.256,8.267s8.267-3.7,8.267-8.267v-21.218c0-2.821,2.289-5.111,5.111-5.111,.139,0,.277,0,.416,.023,2.012,.162,3.7,1.503,4.371,3.33,.197,.416,.312,.879,.312,1.364v13.424h-.012v8.314c0,.194,.034,.379,.047,.569,.006,.071,.01,.143,.018,.213,.319,3.351,2.619,6.127,5.752,7.103,.058,.023,.127,.035,.185,.046,.867,.173,1.769,.266,2.694,.266,.185,0,.37,0,.555-.012,6.371-.254,11.586-4.972,12.615-11.112-.023,.035-.046,.058-.069,.069Z"/><g><circle class="d" cx="504.567" cy="59.976" r="8.26"/><path class="d" d="M512.827,78.459v26.791c0,4.567-3.7,8.267-8.267,8.267s-8.256-3.7-8.256-8.267v-21.611c0-1.746-1.411-3.157-3.157-3.157-.763,0-1.457,.277-2,.717-.023,.012-.035,.023-.046,.046l-.069,.069c-.023,.012-.046,.035-.069,.069,1.029-6.14,6.244-10.857,12.615-11.112,.185-.012,.37-.012,.555-.012,.925,0,1.827,.092,2.694,.266,.058,.012,.127,.023,.185,.046,3.376,1.052,5.816,4.186,5.816,7.886Z"/></g><g><circle class="d" cx="744.351" cy="59.976" r="8.26"/><path class="d" d="M752.612,78.459v26.791c0,4.567-3.7,8.267-8.267,8.267s-8.256-3.7-8.256-8.267v-21.611c0-1.746-1.411-3.157-3.157-3.157-.763,0-1.457,.277-2,.717-.023,.012-.035,.023-.046,.046l-.069,.069c-.023,.012-.046,.035-.069,.069,1.029-6.14,6.244-10.857,12.615-11.112,.185-.012,.37-.012,.555-.012,.925,0,1.827,.092,2.694,.266,.058,.012,.127,.023,.185,.046,3.376,1.052,5.816,4.186,5.816,7.886Z"/></g><path class="d" d="M330.654,76.569h-.277c.046-.012,.093-.012,.139-.012s.093,0,.139,.012Z"/><path class="d" d="M486.07,51.605v53.645c0,4.567-3.7,8.267-8.267,8.267s-8.256-3.7-8.256-8.267V56.785c0-1.746-1.411-3.157-3.157-3.157-.763,0-1.457,.277-2,.717-.023,.012-.035,.023-.046,.046l-.069,.069c-.023,.012-.046,.035-.069,.069,1.029-6.14,6.244-10.857,12.615-11.112,.185-.012,.37-.012,.555-.012,.925,0,1.827,.092,2.694,.266,.058,.012,.127,.023,.185,.046,3.376,1.052,5.816,4.186,5.816,7.886Z"/><path class="d" d="M376.858,76.558c-.046,0-.093,0-.139,.012h.277c-.046-.012-.093-.012-.139-.012Z"/><path class="d" d="M377.182,70.268c-.104-.012-.22-.012-.324-.012-.093,0-.185,0-.277,.012-11.817,.139-21.345,9.771-21.345,21.622s9.505,21.449,21.299,21.611c.104,.012,.22,.012,.324,.012s.22,0,.324-.012c11.794-.162,21.31-9.771,21.31-21.611s-9.516-21.46-21.31-21.622Zm4.787,31.832c0,2.821-2.289,5.099-5.111,5.099s-5.099-2.278-5.099-5.099v-20.431c0-2.775,2.209-5.03,4.96-5.099,.046-.012,.092-.012,.139-.012s.093,0,.139,.012c2.764,.069,4.972,2.324,4.972,5.099v20.431Z"/><path class="d" d="M376.997,76.569h-.277c.046-.012,.092-.012,.139-.012s.093,0,.139,.012Z"/><path class="d" d="M376.997,76.569h-.277c.046-.012,.092-.012,.139-.012s.093,0,.139,.012Z"/><path class="d" d="M538.946,70.268c-.104-.012-.22-.012-.324-.012-.093,0-.185,0-.277,.012-11.817,.139-21.345,9.771-21.345,21.622,0,5.041,1.723,9.69,4.637,13.367,.543,.705,1.133,1.364,1.769,1.977,3.618,3.607,8.485,5.919,13.918,6.243h0c.312,.012,.823,.024,1.622,.024,1.654-.012,3.249-.22,4.787-.601v15.922c0,4.151-1.168,8.036-3.203,11.331,11.054-.96,19.715-10.245,19.715-21.541v-26.722c0-11.84-9.505-21.46-21.299-21.622Zm4.787,31.832c0,2.821-2.289,5.099-5.111,5.099s-5.099-2.278-5.099-5.099v-20.431c0-2.775,2.197-5.03,4.96-5.099,.046-.012,.093-.012,.139-.012s.093,0,.139,.012c2.764,.069,4.972,2.324,4.972,5.099v20.431Z"/><path class="d" d="M603.553,78.466c-.532-.682-1.11-1.33-1.734-1.943-3.608-3.585-8.487-5.897-13.898-6.221-.301-.012-.613-.023-.914-.023h-.786c-1.619,.023-3.203,.231-4.718,.601v-15.934c0-4.209,1.203-8.14,3.284-11.459-11.089,.925-19.795,10.21-19.795,21.541v40.227c0,4.556,3.689,8.256,8.256,8.256,1.873,0,3.596-.624,4.984-1.688,1.989-1.492,3.272-3.885,3.272-6.568v-23.577c0-2.821,2.289-5.111,5.111-5.111s5.099,2.289,5.099,5.111v23.577c0,2.683,1.283,5.064,3.272,6.568,1.388,1.064,3.11,1.688,4.995,1.688,4.556,0,8.256-3.7,8.256-8.256v-13.367c0-5.076-1.746-9.747-4.683-13.424Z"/><path class="d" d="M898.015,73.413c0,1.723-1.376,3.122-3.087,3.157h-.069c-.116,0-.243-.012-.358-.012-.948,0-1.885,.058-2.81,.197-3.527,.439-6.776,1.746-9.551,3.689v24.802c0,1.064-.197,2.081-.567,3.006-.671,1.711-1.873,3.133-3.423,4.058-1.249,.763-2.706,1.203-4.278,1.203-4.556,0-8.256-3.7-8.256-8.267v-21.611c0-1.746-1.411-3.157-3.157-3.157-.763,0-1.457,.277-2,.717-.023,.012-.035,.023-.046,.046l-.069,.069c-.023,.012-.046,.035-.069,.069,1.029-6.14,6.244-10.857,12.615-11.112,.185-.012,.37-.012,.555-.012,.925,0,1.827,.093,2.694,.266,.058,.012,.127,.023,.185,.046,2.428,.752,4.371,2.59,5.261,4.926,3.457-2.995,7.874-4.891,12.719-5.192h.023c.277-.023,.555-.035,.832-.035h.023c.532,.058,1.041,.254,1.468,.543,.821,.567,1.364,1.526,1.364,2.602Z"/><path class="d" d="M859.238,102.458l-.069,.069c-.012,.023-.023,.035-.046,.046-.543,.439-1.237,.717-2,.717-1.746,0-3.157-1.411-3.157-3.157v-21.611c0-4.567-3.7-8.267-8.256-8.267-1.885,0-3.608,.624-4.995,1.688-2.486-1.052-5.203-1.642-8.059-1.677-.104,0-.208-.012-.312-.012h-.012c-.093,0-.185,0-.277,.012-11.817,.15-21.345,9.771-21.345,21.622,0,11.944,9.69,21.622,21.634,21.622,2.948,0,5.758-.59,8.325-1.665,.763,.601,1.642,1.064,2.59,1.353,.058,.023,.127,.035,.185,.046,.867,.173,1.769,.266,2.694,.266,.185,0,.37,0,.555-.012,6.371-.254,11.586-4.972,12.615-11.112-.023,.035-.046,.058-.069,.069Zm-21.796-.358c0,2.821-2.289,5.099-5.099,5.099s-5.111-2.278-5.111-5.099v-20.431c0-2.775,2.208-5.03,4.96-5.099,.046-.012,.104-.012,.15-.012s.093,0,.139,.012c2.752,.069,4.96,2.324,4.96,5.099v20.431Z"/></g><g><g><path class="d" d="M183.558,91.78c0,26.219-10.995,49.871-28.624,66.594-2.4,2.279-4.926,4.428-7.562,6.438-2.094,1.599-4.261,3.107-6.492,4.521-3.887,2.466-7.97,4.648-12.222,6.516-11.285,4.957-23.762,7.71-36.878,7.71C41.092,183.559,0,142.468,0,91.78S41.092,.001,91.779,.001C101.006,.001,109.916,1.361,118.315,3.897c.015,.003,.033,.009,.048,.015,.187,.054,.372,.112,.556,.169h.003c2.599,.886,4.618,3.031,5.325,5.709,.178,.677,.275,1.39,.275,2.125,0,4.57-3.705,8.275-8.278,8.275-.743,0-1.463-.097-2.146-.281-.009-.003-.015-.003-.024-.009-.018-.003-.039-.009-.057-.015-.006,0-.009,0-.015-.006-.118-.036-.239-.073-.36-.109-.018-.003-.039-.009-.057-.018-1.203-.366-2.421-.698-3.642-1.003-5.897-1.463-11.971-2.2-18.164-2.2-10.164,0-20.014,1.989-29.277,5.906-8.958,3.79-17.004,9.215-23.919,16.13-6.915,6.915-12.34,14.961-16.13,23.919-3.917,9.263-5.906,19.113-5.906,29.277s1.989,20.014,5.906,29.277c3.79,8.958,9.215,17.004,16.13,23.919,6.915,6.915,14.961,12.34,23.919,16.13,9.263,3.917,19.113,5.906,29.277,5.906,6.193,0,12.268-.737,18.164-2.2,3.784-.94,7.492-2.173,11.113-3.705,1.968-.831,3.89-1.744,5.767-2.732,.617-.323,1.23-.656,1.835-1,4.346-2.442,8.429-5.313,12.222-8.589,1.405-1.215,2.771-2.484,4.095-3.808,6.915-6.915,12.34-14.961,16.13-23.919,3.917-9.263,5.906-19.113,5.906-29.277s-1.989-20.014-5.906-29.277c-3.79-8.958-9.215-17.004-16.13-23.919-1.324-1.324-2.69-2.593-4.095-3.808-1.405,1.212-2.774,2.484-4.098,3.808-6.915,6.915-12.34,14.961-16.127,23.919-3.92,9.263-5.906,19.113-5.906,29.277s1.986,20.014,5.906,29.277c.804,1.907,1.683,3.772,2.635,5.591,.009,.015,.018,.033,.027,.048,.127,.242,.254,.484,.384,.725,.006,.003,.006,.009,.009,.015,.499,1.064,.777,2.252,.777,3.503,0,4.57-3.705,8.275-8.278,8.275-3.134,0-5.86-1.741-7.263-4.31-.009-.012-.015-.024-.021-.036-.06-.112-.118-.227-.175-.342-6.737-12.763-10.548-27.31-10.548-42.748,0-23.341,8.713-44.646,23.063-60.842,1.768-1.998,3.624-3.914,5.558-5.751,4.31-4.089,9.016-7.764,14.057-10.959,2.23,1.414,4.397,2.923,6.492,4.521,2.635,2.01,5.162,4.159,7.562,6.438,17.629,16.723,28.624,40.375,28.624,66.594Z"/><circle class="d" cx="67.348" cy="130.942" r="8.276"/><path class="d" d="M100.076,131.296c-.203,4.565-4.07,8.102-8.635,7.899-3.056-.136-5.651-1.913-6.969-4.443-.009-.009-.014-.022-.014-.031-.086-.173-.169-.346-.249-.519-.008-.019-.017-.034-.025-.053-6.147-13.047-9.301-27.736-8.615-43.144,.203-4.565,4.07-8.102,8.638-7.898,4.496,.2,7.992,3.95,7.902,8.424v.015c.002,.006,.002,.009-.001,.015l-.016,.362c.003,.006,.003,.009,0,.015v.015c-.423,10.08,1.126,19.939,4.605,29.3,.767,2.064,1.618,4.084,2.556,6.059,.036,.074,.072,.151,.108,.226,.515,1.145,.775,2.422,.716,3.759Z"/></g><g><path class="d" d="M175.995,1.191h-1.92V6.398h-1.543V1.191h-1.885V0h5.348V1.191Z"/><path class="d" d="M178.673,0l1.428,4.452,1.424-4.452h2.03V6.398h-1.547v-1.494l.149-3.059-1.547,4.553h-1.02l-1.551-4.557,.148,3.063v1.494h-1.542V0h2.026Z"/></g></g></g></g></g></svg>